<svg width="21" height="27" viewBox="0 0 21 27" fill="none" xmlns="http://www.w3.org/2000/svg">
<path d="M10.0043 0.634277C4.4891 0.634277 0.00163269 4.63192 0.00163269 9.54381C0.00163269 11.883 1.14632 14.9938 3.40381 18.7899C5.2168 21.8378 7.31424 24.5939 8.40516 25.9653C8.58951 26.1996 8.83053 26.3902 9.1087 26.5215C9.38687 26.6529 9.69435 26.7214 10.0062 26.7214C10.3181 26.7214 10.6256 26.6529 10.9037 26.5215C11.1819 26.3902 11.4229 26.1996 11.6073 25.9653C12.6963 24.5939 14.7956 21.8378 16.6086 18.7899C18.8624 14.9949 20.0071 11.8842 20.0071 9.54381C20.0071 4.63192 15.5196 0.634277 10.0043 0.634277ZM10.0043 13.6783C9.21301 13.6783 8.43944 13.4597 7.78146 13.0502C7.12349 12.6407 6.61066 12.0586 6.30783 11.3776C6.00499 10.6967 5.92576 9.94731 6.08014 9.22436C6.23452 8.50142 6.61559 7.83736 7.17515 7.31615C7.73471 6.79494 8.44764 6.43999 9.22377 6.29619C9.99991 6.15238 10.8044 6.22619 11.5355 6.50827C12.2666 6.79034 12.8915 7.26802 13.3311 7.8809C13.7708 8.49378 14.0054 9.21434 14.0054 9.95144C14.0043 10.9395 13.5824 11.8869 12.8323 12.5855C12.0822 13.2842 11.0651 13.6772 10.0043 13.6783Z" fill="white" fill-opacity="0.6"/>
</svg>
