<svg width="107" height="50" viewBox="0 0 107 50" fill="none" xmlns="http://www.w3.org/2000/svg">
<path d="M32.1367 24.6835C31.9575 24.5114 31.7078 24.4468 31.3712 24.4468C29.4386 24.4522 27.5061 24.4522 25.5735 24.4468C25.3835 24.4468 25.2803 24.4844 25.1663 24.5759C25.0306 24.6889 24.8515 24.7804 24.6723 24.8665C24.4932 24.9526 24.2977 25.0226 24.124 25.1409C24.2109 25.1409 24.2977 25.1409 24.3846 25.1409C26.7135 25.1409 29.0424 25.1356 31.3712 25.1463C31.7078 25.1463 31.9575 25.0871 32.1367 24.9149C32.1367 24.8396 32.1367 24.7589 32.1367 24.6835Z" fill="white"/>
<path d="M14.7218 30.2842C14.1898 29.8914 13.6958 29.5255 13.1964 29.1596C11.9315 28.2232 10.6721 27.2923 9.39636 26.3614C8.90778 26.0062 8.69063 25.6134 9.00006 25.1775C9.14664 24.9784 9.41807 24.7847 9.71664 24.6609C11.1715 24.0421 12.6535 23.4448 14.1301 22.8421C14.6024 22.6484 14.6621 22.5515 14.4993 22.2071C14.065 21.2923 13.6252 20.3829 13.2018 19.4681C13.1421 19.339 13.0552 19.2959 12.8381 19.2959C10.2541 19.3013 7.67547 19.2959 5.09145 19.3013C4.01115 19.3013 3.33258 19.7318 3.32715 20.399C3.32715 23.3371 3.32715 26.2807 3.32715 29.2188C3.32715 29.8537 4.01117 30.295 5.02089 30.3004C8.19121 30.3058 11.3561 30.3004 14.5264 30.3004C14.5698 30.295 14.6133 30.2896 14.7218 30.2842Z" fill="#3E8527"/>
<path d="M12.9563 16.4769C13.0106 16.6061 13.0378 16.6975 13.0812 16.7836C13.9172 18.5487 14.7586 20.3137 15.5946 22.0787C15.8607 22.6437 15.6218 23.0581 14.8184 23.3863C13.3526 23.989 11.8923 24.5863 10.4266 25.189C9.88375 25.415 9.83488 25.6141 10.2475 25.9209C13.5209 28.337 16.7998 30.7585 20.0733 33.1747C20.0841 33.1854 20.1004 33.1962 20.1113 33.207C20.2578 33.3038 20.3718 33.4599 20.6433 33.363C20.8821 33.2769 20.9147 33.1262 20.855 32.9702C20.399 31.781 19.9484 30.5863 19.4924 29.3971C19.2372 28.7298 18.9767 28.0626 18.7215 27.3953C18.5153 26.8572 18.7867 26.4482 19.5413 26.1415C21.0179 25.5388 22.4944 24.9415 23.971 24.3388C24.465 24.1397 24.5139 23.9191 24.1284 23.65C20.6433 21.2123 17.1635 18.7801 13.6675 16.3478C13.5752 16.2832 13.3472 16.2186 13.2603 16.2455C13.1138 16.2778 13.0378 16.4016 12.9563 16.4769Z" fill="#3E8527"/>
<path d="M2.19724 26.8515C2.19724 25.474 2.19724 24.1125 2.19724 22.7403C1.6218 22.7403 1.05723 22.7296 0.498078 22.7457C0.210361 22.7511 0.00950008 22.8964 0.00407146 23.0901C-0.00135715 24.2309 -0.00135715 25.3717 0.00407146 26.5125C0.00407146 26.6901 0.150644 26.8408 0.427503 26.8515C1.01922 26.8677 1.61095 26.8515 2.19724 26.8515Z" fill="#3E8527"/>
<path d="M20.1924 28.2455C20.2684 28.4554 20.3335 28.6491 20.4204 28.8428C20.4367 28.8805 20.5235 28.9128 20.5941 28.9235C20.6592 28.9397 20.7407 28.9289 20.8113 28.9289C24.1336 28.9289 27.4559 28.9289 30.7782 28.9289C30.8705 28.9289 30.9682 28.9343 31.0605 28.9235C31.359 28.902 31.5653 28.7675 31.5762 28.5899C31.5816 28.4123 31.3916 28.2724 31.0985 28.2401C31.017 28.2294 30.9302 28.2347 30.8488 28.2347C27.4016 28.2347 23.9544 28.2347 20.5073 28.2347C20.4095 28.2347 20.3172 28.2401 20.1924 28.2455Z" fill="white"/>
<path d="M21.371 20.6787C21.6967 20.9047 21.9736 21.1038 22.2668 21.2976C22.3265 21.3352 22.4459 21.3568 22.5436 21.3568C25.1548 21.3621 27.7714 21.3621 30.3825 21.3568C30.7897 21.3568 31.0231 21.2115 31.0122 20.9962C31.0014 20.7917 30.768 20.6626 30.3717 20.6626C27.4348 20.6626 24.4979 20.6626 21.561 20.6626C21.523 20.668 21.485 20.6734 21.371 20.6787Z" fill="white"/>
<path d="M18.4014 18.6073C18.738 18.8441 19.0149 19.0432 19.308 19.2369C19.3677 19.2746 19.4871 19.2961 19.5849 19.2961C20.9746 19.3015 22.3589 19.3015 23.7486 19.2961C24.1341 19.2961 24.3675 19.1562 24.3675 18.9517C24.3675 18.758 24.1449 18.6127 23.8083 18.6127C22.0386 18.6019 20.2634 18.6073 18.4014 18.6073Z" fill="white"/>
<path d="M19.8025 27.2077C20.1934 27.2077 20.5679 27.2077 20.9425 27.2077C21.9957 27.2077 23.0542 27.2077 24.1074 27.2077C24.178 27.2077 24.254 27.2077 24.3245 27.2077C24.6883 27.1969 24.9162 27.0624 24.9217 26.8633C24.9271 26.6534 24.6883 26.5135 24.3083 26.5135C23.2768 26.5081 22.2399 26.5242 21.2085 26.5081C20.7742 26.5027 20.4214 26.5727 20.0848 26.7287C19.8296 26.8525 19.7102 26.987 19.8025 27.2077Z" fill="white"/>
<path d="M20.9805 30.3007C21.0728 30.5428 21.1542 30.7527 21.2356 30.9787C21.3225 30.9841 21.4039 30.9895 21.4853 30.9895C22.5928 30.9895 23.6948 30.9895 24.8022 30.9895C24.8456 30.9895 24.8836 30.9895 24.9271 30.9895C25.2582 30.9733 25.4808 30.828 25.4808 30.6397C25.4754 30.4567 25.2636 30.306 24.9434 30.306C23.6405 30.2953 22.3431 30.3007 20.9805 30.3007Z" fill="white"/>
<path d="M27.6792 26.5136C27.3372 26.5136 26.9898 26.5082 26.6478 26.5136C26.2895 26.519 26.0506 26.6589 26.0506 26.8526C26.0452 27.0517 26.2732 27.197 26.6369 27.2024C27.3481 27.2078 28.0592 27.2078 28.7649 27.2024C29.1232 27.197 29.3621 27.0571 29.3675 26.8634C29.3729 26.6643 29.1232 26.519 28.7487 26.5136C28.3904 26.5136 28.0321 26.5136 27.6792 26.5136Z" fill="white"/>
<path d="M26.8698 18.6079C26.5983 18.6079 26.3269 18.6025 26.0555 18.6079C25.7189 18.6186 25.4909 18.7585 25.4854 18.9469C25.48 19.1352 25.708 19.2913 26.0392 19.2966C26.5929 19.3074 27.1466 19.3074 27.6949 19.2966C28.0315 19.2913 28.2486 19.1406 28.2432 18.9522C28.2378 18.7585 28.0206 18.624 27.6786 18.6132C27.4126 18.6025 27.1412 18.6079 26.8698 18.6079Z" fill="white"/>
<path d="M28.0047 30.9907C28.2544 30.9907 28.5041 30.9961 28.7538 30.9907C29.1121 30.9853 29.351 30.8454 29.3619 30.6517C29.3727 30.4526 29.1176 30.3019 28.7484 30.3019C28.2273 30.2965 27.7061 30.2965 27.185 30.3019C26.8267 30.3073 26.5987 30.4472 26.5987 30.6463C26.5987 30.8454 26.8267 30.9799 27.1904 30.9907C27.4618 30.9907 27.7333 30.9907 28.0047 30.9907Z" fill="white"/>
<path d="M23.8203 22.3911C24.1623 22.6278 24.4446 22.8269 24.7269 23.0207C24.7595 23.0422 24.8083 23.0745 24.8518 23.0745C25.2969 23.0745 25.7475 23.0852 26.1926 23.053C26.4695 23.0314 26.5998 22.8807 26.5943 22.7086C26.5835 22.5364 26.3609 22.3964 26.0569 22.3911C25.3403 22.3857 24.6237 22.3911 23.8203 22.3911Z" fill="white"/>
<path d="M28.8087 23.0802C28.9878 23.0802 29.167 23.0855 29.3407 23.0802C29.6773 23.0694 29.9107 22.9295 29.9161 22.7411C29.9216 22.5528 29.6936 22.4021 29.357 22.3914C28.9933 22.3806 28.6241 22.3806 28.2604 22.3914C27.9238 22.4021 27.6958 22.5474 27.7013 22.7411C27.7067 22.9295 27.9347 23.0694 28.2713 23.0802C28.4558 23.0855 28.6295 23.0802 28.8087 23.0802Z" fill="white"/>
<path d="M65.8323 13.5265L65.8314 13.5309C64.8709 18.6851 61.0449 22.0566 56.3255 23.2971L56.3902 25.7171C61.2011 26.7102 63.7368 30.8576 62.8562 35.6225L62.8554 35.6267C61.5848 42.6363 55.263 47.4285 45.1654 47.4285H23.4924L31.8126 2.78133H53.1672C58.0707 2.78133 61.5467 3.93977 63.6132 5.78165C65.6164 7.5671 66.4734 10.1542 65.8323 13.5265ZM37.7988 27.6904H36.7663L36.5767 28.7053L34.5953 39.3116L34.3203 40.7831H35.8174H44.742C46.9691 40.7831 48.9133 40.2924 50.4166 39.2163C51.9386 38.1267 52.8874 36.5231 53.2576 34.5461C53.6741 32.5604 53.2783 30.7534 51.9587 29.4688C50.689 28.2327 48.7743 27.6904 46.5823 27.6904H37.7988ZM41.1971 9.36211H40.1605L39.9741 10.3818L38.1338 20.45L37.8657 21.9168H39.3568H47.2229C49.4089 21.9168 51.3281 21.4461 52.8102 20.4215C54.3197 19.378 55.2676 17.8328 55.6024 15.9212L55.6032 15.9168C55.9297 14.0121 55.5937 12.2697 54.3237 11.031C53.1042 9.84163 51.265 9.36211 49.1338 9.36211H41.1971Z" fill="white" stroke="white" stroke-width="2.48648"/>
<path d="M85.5816 1C97.4866 1 105.136 6.774 105.847 16.444H92.5248C91.2491 13.2906 88.1331 11.6117 83.6708 11.6117C75.8047 11.6117 69.7138 16.8475 68.2263 25.0377C66.5978 33.7659 70.8484 38.8673 79.5613 38.8673C85.6522 38.8673 90.4023 35.7785 93.1654 30.4726H77.8621L79.3496 22.078H105.706L103.724 32.7543C99.6146 40.8798 89.8377 49 76.733 49C61.8531 49 53.2813 39.1309 55.9034 25.0323C58.5145 10.939 70.7018 1 85.5816 1Z" fill="#3E8527" stroke="white" stroke-width="1.95"/>
<mask id="path-17-inside-1_224_2" fill="white">
<path fill-rule="evenodd" clip-rule="evenodd" d="M84.4738 25.3829L84.4955 27.2771C84.4684 27.3847 84.4412 27.4869 84.4032 27.5892C84.1752 28.3156 83.7464 28.956 83.1221 29.5156C82.5955 29.9892 82.0092 30.3228 81.3632 30.5219C80.8584 30.678 80.3155 30.7479 79.7346 30.7372L76.2223 30.6403L76.2712 28.9183L72.3191 28.8107C72.0531 28.7999 71.8306 28.7085 71.646 28.5255C71.4614 28.3425 71.3746 28.1273 71.38 27.8798C71.3854 27.6269 71.4886 27.417 71.684 27.2448C71.874 27.0726 72.102 26.9865 72.368 26.9919L76.32 27.0995L76.3689 25.2215L72.4169 25.1139C72.1509 25.1085 71.9283 25.0116 71.7437 24.8286C71.5591 24.6457 71.4723 24.4304 71.4777 24.1829C71.4831 23.93 71.5863 23.7201 71.7817 23.5479C71.9717 23.3757 72.1997 23.2896 72.4657 23.295L76.4178 23.4026L76.4666 21.6807L79.9789 21.7775C80.5544 21.7937 81.0972 21.8959 81.5912 22.0789C82.2209 22.3103 82.791 22.6816 83.2904 23.182C83.9635 23.8493 84.3761 24.608 84.5335 25.4636L83.7518 24.086"/>
</mask>
<path fill-rule="evenodd" clip-rule="evenodd" d="M84.4738 25.3829L84.4955 27.2771C84.4684 27.3847 84.4412 27.4869 84.4032 27.5892C84.1752 28.3156 83.7464 28.956 83.1221 29.5156C82.5955 29.9892 82.0092 30.3228 81.3632 30.5219C80.8584 30.678 80.3155 30.7479 79.7346 30.7372L76.2223 30.6403L76.2712 28.9183L72.3191 28.8107C72.0531 28.7999 71.8306 28.7085 71.646 28.5255C71.4614 28.3425 71.3746 28.1273 71.38 27.8798C71.3854 27.6269 71.4886 27.417 71.684 27.2448C71.874 27.0726 72.102 26.9865 72.368 26.9919L76.32 27.0995L76.3689 25.2215L72.4169 25.1139C72.1509 25.1085 71.9283 25.0116 71.7437 24.8286C71.5591 24.6457 71.4723 24.4304 71.4777 24.1829C71.4831 23.93 71.5863 23.7201 71.7817 23.5479C71.9717 23.3757 72.1997 23.2896 72.4657 23.295L76.4178 23.4026L76.4666 21.6807L79.9789 21.7775C80.5544 21.7937 81.0972 21.8959 81.5912 22.0789C82.2209 22.3103 82.791 22.6816 83.2904 23.182C83.9635 23.8493 84.3761 24.608 84.5335 25.4636L83.7518 24.086" fill="white"/>
<path d="M84.4955 27.2771L86.9065 27.8851L86.9856 27.5717L86.9819 27.2486L84.4955 27.2771ZM84.4032 27.5892L82.0725 26.7229L82.0501 26.7832L82.0309 26.8446L84.4032 27.5892ZM83.1221 29.5156L81.4624 27.6642L81.4595 27.6668L83.1221 29.5156ZM81.3632 30.5219L80.6309 28.1457L80.6289 28.1463L81.3632 30.5219ZM79.7346 30.7372L79.6661 33.2227L79.6773 33.223L79.6886 33.2232L79.7346 30.7372ZM76.2223 30.6403L73.7368 30.5698L73.6662 33.0572L76.1538 33.1258L76.2223 30.6403ZM76.2712 28.9183L78.7567 28.9889L78.8273 26.5006L76.3389 26.4328L76.2712 28.9183ZM72.3191 28.8107L72.2186 31.2952L72.235 31.2958L72.2514 31.2963L72.3191 28.8107ZM71.38 27.8798L73.8659 27.9343L73.8659 27.9331L71.38 27.8798ZM71.684 27.2448L73.3278 29.1104L73.3409 29.0989L73.3538 29.0872L71.684 27.2448ZM72.368 26.9919L72.4357 24.5063L72.427 24.5061L72.4183 24.5059L72.368 26.9919ZM76.32 27.0995L76.2524 29.5851L78.7409 29.6528L78.8057 27.1642L76.32 27.0995ZM76.3689 25.2215L78.8545 25.2861L78.9191 22.8035L76.4366 22.7359L76.3689 25.2215ZM72.4169 25.1139L72.4846 22.6283L72.4759 22.6281L72.4672 22.6279L72.4169 25.1139ZM71.4777 24.1829L73.9636 24.2374L73.9636 24.2363L71.4777 24.1829ZM71.7817 23.5479L73.4255 25.4135L73.4386 25.402L73.4515 25.3903L71.7817 23.5479ZM72.4657 23.295L72.5334 20.8095L72.5247 20.8092L72.516 20.809L72.4657 23.295ZM76.4178 23.4026L76.3501 25.8882L78.8328 25.9558L78.9032 23.4732L76.4178 23.4026ZM76.4666 21.6807L76.5352 19.1951L74.0516 19.1266L73.9811 21.6101L76.4666 21.6807ZM79.9789 21.7775L80.0487 19.292L80.0475 19.292L79.9789 21.7775ZM81.5912 22.0789L80.7277 24.4106L80.7336 24.4128L81.5912 22.0789ZM83.2904 23.182L81.5304 24.9385L81.5399 24.9479L83.2904 23.182ZM84.5335 25.4636L82.371 26.6908L86.979 25.0137L84.5335 25.4636ZM81.9875 25.4114L82.0092 27.3056L86.9819 27.2486L86.9601 25.3544L81.9875 25.4114ZM82.0846 26.669C82.0788 26.6917 82.0746 26.7081 82.0711 26.7215C82.0676 26.7346 82.0655 26.7423 82.0643 26.7464C82.0619 26.7545 82.0647 26.7442 82.0725 26.7229L86.734 28.4554C86.8228 28.2163 86.8774 28.0005 86.9065 27.8851L82.0846 26.669ZM82.0309 26.8446C81.9523 27.0949 81.7952 27.3659 81.4624 27.6642L84.7818 31.3671C85.6976 30.5461 86.3982 29.5364 86.7756 28.3338L82.0309 26.8446ZM81.4595 27.6668C81.1925 27.9069 80.9213 28.0562 80.6309 28.1457L82.0956 32.8981C83.0972 32.5894 83.9986 32.0714 84.7847 31.3645L81.4595 27.6668ZM80.6289 28.1463C80.4078 28.2147 80.1319 28.2576 79.7807 28.2511L79.6886 33.2232C80.4991 33.2382 81.3089 33.1413 82.0975 32.8975L80.6289 28.1463ZM79.8032 28.2516L76.2909 28.1548L76.1538 33.1258L79.6661 33.2227L79.8032 28.2516ZM78.7078 30.7108L78.7567 28.9889L73.7857 28.8478L73.7368 30.5698L78.7078 30.7108ZM76.3389 26.4328L72.3868 26.3252L72.2514 31.2963L76.2035 31.4039L76.3389 26.4328ZM72.4197 26.3263C72.5468 26.3314 72.7219 26.359 72.9159 26.4406C73.1129 26.5235 73.2749 26.6391 73.3965 26.7596L69.8955 30.2914C70.5525 30.9426 71.3778 31.2611 72.2186 31.2952L72.4197 26.3263ZM73.3965 26.7596C73.5161 26.8782 73.6476 27.0523 73.7425 27.2839C73.838 27.5169 73.8701 27.7437 73.8659 27.9343L68.8941 27.8253C68.8733 28.7728 69.2394 29.641 69.8955 30.2914L73.3965 26.7596ZM73.8659 27.9331C73.8615 28.1398 73.8137 28.3769 73.7007 28.6115C73.5895 28.8422 73.4464 29.0059 73.3278 29.1104L70.0402 25.3792C69.3618 25.9769 68.9155 26.8281 68.8941 27.8264L73.8659 27.9331ZM73.3538 29.0872C73.2303 29.1991 73.0657 29.3074 72.8639 29.3824C72.6625 29.4573 72.4726 29.481 72.3177 29.4778L72.4183 24.5059C71.5255 24.4878 70.6801 24.7989 70.0142 25.4024L73.3538 29.0872ZM72.3003 29.4774L76.2524 29.5851L76.3877 24.6139L72.4357 24.5063L72.3003 29.4774ZM78.8057 27.1642L78.8545 25.2861L73.8833 25.1568L73.8344 27.0348L78.8057 27.1642ZM76.4366 22.7359L72.4846 22.6283L72.3492 27.5994L76.3012 27.707L76.4366 22.7359ZM72.4672 22.6279C72.6284 22.6311 72.823 22.6645 73.0253 22.7507C73.2269 22.8367 73.3833 22.9528 73.4942 23.0627L69.9932 26.5946C70.6246 27.2204 71.4534 27.5813 72.3666 27.5998L72.4672 22.6279ZM73.4942 23.0627C73.6138 23.1813 73.7453 23.3555 73.8402 23.5871C73.9357 23.82 73.9678 24.0469 73.9636 24.2374L68.9918 24.1284C68.9711 25.0759 69.3371 25.9442 69.9932 26.5946L73.4942 23.0627ZM73.9636 24.2363C73.9592 24.443 73.9115 24.68 73.7984 24.9146C73.6872 25.1454 73.5441 25.3091 73.4255 25.4135L70.1379 21.6823C69.4596 22.28 69.0132 23.1312 68.9918 24.1295L73.9636 24.2363ZM73.4515 25.3903C73.328 25.5022 73.1634 25.6105 72.9616 25.6855C72.7602 25.7604 72.5703 25.7841 72.4154 25.781L72.516 20.809C71.6232 20.791 70.7778 21.1021 70.1119 21.7055L73.4515 25.3903ZM72.398 25.7806L76.3501 25.8882L76.4854 20.9171L72.5334 20.8095L72.398 25.7806ZM78.9032 23.4732L78.9521 21.7512L73.9811 21.6101L73.9323 23.3321L78.9032 23.4732ZM76.3981 24.1662L79.9104 24.2631L80.0475 19.292L76.5352 19.1951L76.3981 24.1662ZM79.9092 24.263C80.2348 24.2722 80.5074 24.329 80.7277 24.4106L82.4548 19.7472C81.687 19.4628 80.8739 19.3152 80.0487 19.292L79.9092 24.263ZM80.7336 24.4128C81.0024 24.5115 81.2693 24.6768 81.5304 24.9384L85.0504 21.4256C84.3126 20.6863 83.4395 20.109 82.4488 19.745L80.7336 24.4128ZM81.5399 24.9479C81.8847 25.2897 82.0304 25.6001 82.0881 25.9136L86.979 25.0137C86.7218 23.6159 86.0424 22.4089 85.0409 21.4161L81.5399 24.9479ZM86.6961 24.2365L85.9144 22.8589L81.5893 25.3132L82.371 26.6908L86.6961 24.2365Z" fill="white" mask="url(#path-17-inside-1_224_2)"/>
</svg>
