<svg width="105" height="47" viewBox="0 0 105 47" fill="none" xmlns="http://www.w3.org/2000/svg">
<path d="M31.5969 23.1898C31.4208 23.0212 31.1753 22.958 30.8443 22.958C28.9442 22.9633 27.044 22.9633 25.1438 22.958C24.957 22.958 24.8555 22.9949 24.7435 23.0845C24.61 23.1951 24.4339 23.2847 24.2577 23.369C24.0816 23.4533 23.8894 23.5218 23.7186 23.6377C23.804 23.6377 23.8894 23.6377 23.9748 23.6377C26.2647 23.6377 28.5545 23.6324 30.8443 23.643C31.1753 23.643 31.4208 23.585 31.5969 23.4164C31.5969 23.3426 31.5969 23.2636 31.5969 23.1898Z" fill="black"/>
<path d="M14.4733 28.6752C13.9502 28.2905 13.4645 27.9322 12.9734 27.5739C11.7298 26.6571 10.4915 25.7456 9.23712 24.834C8.75673 24.4863 8.54322 24.1016 8.84746 23.6748C8.99158 23.4799 9.25846 23.2902 9.55203 23.169C10.9825 22.5631 12.4397 21.9782 13.8915 21.3881C14.3559 21.1984 14.4146 21.1036 14.2545 20.7663C13.8275 19.8706 13.3951 18.9801 12.9788 18.0844C12.9201 17.9579 12.8347 17.9158 12.6212 17.9158C10.0805 17.921 7.54508 17.9158 5.00438 17.921C3.94219 17.921 3.27499 18.3426 3.26965 18.9959C3.26965 21.8728 3.26965 24.755 3.26965 27.6319C3.26965 28.2537 3.94221 28.6857 4.935 28.691C8.05217 28.6963 11.164 28.691 14.2811 28.691C14.3239 28.6857 14.3666 28.6804 14.4733 28.6752Z" fill="#3E8527"/>
<path d="M12.7418 15.1551C12.7952 15.2815 12.8218 15.3711 12.8645 15.4554C13.6865 17.1837 14.5139 18.9119 15.3359 20.6402C15.5974 21.1934 15.3626 21.5991 14.5726 21.9205C13.1314 22.5107 11.6956 23.0955 10.2545 23.6857C9.7207 23.907 9.67265 24.1019 10.0783 24.4023C13.2969 26.7681 16.5208 29.1392 19.7394 31.505C19.7501 31.5155 19.7661 31.526 19.7768 31.5366C19.9209 31.6314 20.033 31.7842 20.2999 31.6894C20.5347 31.6051 20.5667 31.4575 20.508 31.3047C20.0597 30.1403 19.6166 28.9705 19.1683 27.8061C18.9174 27.1527 18.6612 26.4993 18.4103 25.846C18.2075 25.3191 18.4744 24.9186 19.2163 24.6183C20.6681 24.0282 22.12 23.4433 23.5718 22.8532C24.0575 22.6582 24.1056 22.4422 23.7266 22.1787C20.2998 19.7918 16.8784 17.4102 13.441 15.0286C13.3503 14.9654 13.1261 14.9022 13.0407 14.9285C12.8966 14.9601 12.8219 15.0813 12.7418 15.1551Z" fill="#3E8527"/>
<path d="M2.1604 25.3139C2.1604 23.965 2.1604 22.632 2.1604 21.2884C1.59462 21.2884 1.0395 21.2778 0.489728 21.2936C0.206834 21.2989 0.00934082 21.4411 0.00400321 21.6308C-0.0013344 22.7479 -0.0013344 23.8649 0.00400321 24.982C0.00400321 25.1558 0.148118 25.3034 0.420336 25.3139C1.00214 25.3297 1.58394 25.3139 2.1604 25.3139Z" fill="#3E8527"/>
<path d="M19.8542 26.6789C19.929 26.8843 19.993 27.074 20.0784 27.2637C20.0944 27.3006 20.1798 27.3322 20.2492 27.3427C20.3133 27.3586 20.3934 27.348 20.4627 27.348C23.7294 27.348 26.996 27.348 30.2626 27.348C30.3533 27.348 30.4494 27.3533 30.5401 27.3427C30.8337 27.3217 31.0365 27.1899 31.0472 27.0161C31.0526 26.8422 30.8657 26.7052 30.5775 26.6736C30.4974 26.663 30.412 26.6683 30.332 26.6683C26.9426 26.6683 23.5532 26.6683 20.1638 26.6683C20.0678 26.6683 19.977 26.6736 19.8542 26.6789Z" fill="black"/>
<path d="M21.0128 19.2707C21.3331 19.492 21.6053 19.6869 21.8935 19.8766C21.9522 19.9135 22.0697 19.9346 22.1657 19.9346C24.7331 19.9398 27.3058 19.9398 29.8732 19.9346C30.2736 19.9346 30.5031 19.7923 30.4924 19.5816C30.4817 19.3813 30.2522 19.2549 29.8626 19.2549C26.9749 19.2549 24.0873 19.2549 21.1996 19.2549C21.1623 19.2602 21.1249 19.2654 21.0128 19.2707Z" fill="black"/>
<path d="M18.0927 17.242C18.4236 17.4739 18.6958 17.6688 18.984 17.8585C19.0427 17.8954 19.1602 17.9165 19.2562 17.9165C20.6227 17.9217 21.9838 17.9217 23.3502 17.9165C23.7292 17.9165 23.9587 17.7795 23.9587 17.5792C23.9587 17.3896 23.7398 17.2473 23.4089 17.2473C21.6688 17.2368 19.9235 17.242 18.0927 17.242Z" fill="black"/>
<path d="M19.4696 25.6616C19.8539 25.6616 20.2222 25.6616 20.5905 25.6616C21.626 25.6616 22.6668 25.6616 23.7023 25.6616C23.7717 25.6616 23.8464 25.6616 23.9158 25.6616C24.2734 25.651 24.4976 25.5193 24.5029 25.3244C24.5083 25.1189 24.2734 24.9819 23.8998 24.9819C22.8857 24.9766 21.8662 24.9924 20.852 24.9766C20.425 24.9713 20.0781 25.0398 19.7471 25.1926C19.4963 25.3138 19.3788 25.4456 19.4696 25.6616Z" fill="black"/>
<path d="M20.6282 28.691C20.7189 28.9281 20.799 29.1336 20.879 29.3549C20.9644 29.3602 21.0445 29.3655 21.1246 29.3655C22.2134 29.3655 23.297 29.3655 24.3858 29.3655C24.4285 29.3655 24.4659 29.3655 24.5086 29.3655C24.8342 29.3497 25.053 29.2074 25.053 29.023C25.0477 28.8438 24.8395 28.6963 24.5246 28.6963C23.2436 28.6857 21.9679 28.691 20.6282 28.691Z" fill="black"/>
<path d="M27.2172 24.9821C26.881 24.9821 26.5393 24.9768 26.2031 24.9821C25.8508 24.9873 25.6159 25.1243 25.6159 25.314C25.6106 25.509 25.8348 25.6512 26.1924 25.6565C26.8916 25.6618 27.5909 25.6618 28.2847 25.6565C28.637 25.6512 28.8719 25.5142 28.8772 25.3246C28.8825 25.1296 28.637 24.9873 28.2687 24.9821C27.9164 24.9821 27.5642 24.9821 27.2172 24.9821Z" fill="black"/>
<path d="M26.4217 17.2416C26.1549 17.2416 25.888 17.2363 25.6211 17.2416C25.2902 17.2521 25.066 17.3891 25.0606 17.5736C25.0553 17.758 25.2795 17.9108 25.6051 17.916C26.1495 17.9266 26.694 17.9266 27.2331 17.916C27.564 17.9108 27.7775 17.7632 27.7722 17.5788C27.7668 17.3891 27.5533 17.2574 27.217 17.2469C26.9555 17.2363 26.6886 17.2416 26.4217 17.2416Z" fill="black"/>
<path d="M27.5359 29.3656C27.7814 29.3656 28.0269 29.3709 28.2725 29.3656C28.6247 29.3604 28.8596 29.2234 28.8703 29.0337C28.881 28.8387 28.6301 28.6912 28.2671 28.6912C27.7547 28.6859 27.2423 28.6859 26.7299 28.6912C26.3776 28.6965 26.1534 28.8335 26.1534 29.0284C26.1534 29.2234 26.3776 29.3551 26.7352 29.3656C27.0021 29.3656 27.269 29.3656 27.5359 29.3656Z" fill="black"/>
<path d="M23.4214 20.9452C23.7577 21.1771 24.0352 21.372 24.3128 21.5617C24.3448 21.5828 24.3928 21.6144 24.4355 21.6144C24.8732 21.6144 25.3163 21.6249 25.7539 21.5933C26.0262 21.5722 26.1543 21.4247 26.1489 21.2561C26.1382 21.0875 25.9194 20.9505 25.6205 20.9452C24.9159 20.9399 24.2114 20.9452 23.4214 20.9452Z" fill="black"/>
<path d="M28.3265 21.6201C28.5026 21.6201 28.6788 21.6254 28.8496 21.6201C29.1805 21.6095 29.41 21.4726 29.4154 21.2881C29.4207 21.1037 29.1965 20.9562 28.8656 20.9456C28.508 20.9351 28.145 20.9351 27.7874 20.9456C27.4565 20.9562 27.2323 21.0984 27.2376 21.2881C27.243 21.4726 27.4672 21.6095 27.7981 21.6201C27.9796 21.6254 28.1504 21.6201 28.3265 21.6201Z" fill="black"/>
<path d="M65.4401 12.3994L65.4397 12.4012C64.4355 17.7674 60.4279 21.254 55.5671 22.5265L55.593 23.4999C60.7402 24.5581 63.4454 29.0153 62.5146 34.0314L62.5143 34.0331C61.1835 41.344 54.5668 46.1788 44.41 46.1788H22.2313L30.6804 1.0271H52.2776C57.1931 1.0271 60.8144 2.18093 63.0299 4.14743C65.2195 6.09096 66.1093 8.89382 65.4401 12.3994ZM37.1668 26.8519H36.7519L36.6754 27.2597L34.7272 37.645L34.6161 38.2372H35.2186H43.9936C46.0828 38.2372 47.832 37.7784 49.1518 36.8376C50.4792 35.8913 51.3241 34.4911 51.6577 32.7082C52.0321 30.9404 51.6668 29.4383 50.5847 28.3892C49.5231 27.36 47.8576 26.8519 45.8031 26.8519H37.1668ZM40.5082 8.90547H40.0916L40.0164 9.3152L38.2069 19.1736L38.0986 19.7639H38.6987H46.4329C48.4851 19.7639 50.214 19.3233 51.515 18.4276C52.8271 17.5243 53.6614 16.1864 53.9603 14.4871L53.9606 14.4853C54.2562 12.7686 53.9354 11.3315 52.9095 10.3351C51.9045 9.35891 50.3213 8.90547 48.3117 8.90547H40.5082Z" fill="black" stroke="black"/>
<path d="M91.5995 28.1086H77.448L78.6436 21.3889H103.027L101.264 30.8484C97.3048 38.5565 87.9561 46.25 75.4426 46.25C68.2903 46.25 62.7536 43.8913 59.3143 39.9496C55.8795 36.013 54.444 30.3916 55.6994 23.6693L55.6995 23.6688C58.1976 10.2418 69.8557 0.75 84.1429 0.75C89.8822 0.75 94.5146 2.13647 97.7802 4.60841C100.835 6.92052 102.746 10.2206 103.243 14.3722H91.4574C89.9377 11.2146 86.6228 9.64058 82.264 9.64058C74.1464 9.64058 67.8651 15.0474 66.341 23.4007C65.5163 27.8042 66.1545 31.4436 68.2599 33.9904C70.3661 36.538 73.8049 37.8284 78.2235 37.8284C84.5062 37.8284 89.4249 34.6355 92.2642 29.2062L92.8381 28.1086H91.5995Z" fill="#3E8527" stroke="black" stroke-width="1.5"/>
<mask id="path-17-inside-1_184_979" fill="white">
<path fill-rule="evenodd" clip-rule="evenodd" d="M83.0599 23.8739L83.0812 25.7286C83.0545 25.834 83.0278 25.9341 82.9905 26.0342C82.7663 26.7455 82.3446 27.3725 81.7308 27.9205C81.213 28.3842 80.6366 28.7109 80.0014 28.9058C79.505 29.0586 78.9712 29.1272 78.4001 29.1166L74.9467 29.0218L74.9947 27.3357L71.1089 27.2303C70.8474 27.2197 70.6286 27.1302 70.4471 26.951C70.2656 26.7719 70.1802 26.5611 70.1855 26.3187C70.1909 26.0711 70.2923 25.8656 70.4844 25.697C70.6713 25.5284 70.8954 25.4441 71.157 25.4493L75.0428 25.5547L75.0908 23.7158L71.205 23.6104C70.9435 23.6052 70.7246 23.5103 70.5431 23.3312C70.3617 23.152 70.2763 22.9413 70.2816 22.6989C70.2869 22.4512 70.3884 22.2458 70.5805 22.0771C70.7673 21.9085 70.9915 21.8242 71.2531 21.8295L75.1388 21.9349L75.1869 20.2488L78.6403 20.3436C79.2061 20.3594 79.7399 20.4595 80.2256 20.6387C80.8447 20.8653 81.4052 21.2288 81.8963 21.7189C82.5581 22.3722 82.9638 23.1151 83.1186 23.9529L82.35 22.604"/>
</mask>
<path fill-rule="evenodd" clip-rule="evenodd" d="M83.0599 23.8739L83.0812 25.7286C83.0545 25.834 83.0278 25.9341 82.9905 26.0342C82.7663 26.7455 82.3446 27.3725 81.7308 27.9205C81.213 28.3842 80.6366 28.7109 80.0014 28.9058C79.505 29.0586 78.9712 29.1272 78.4001 29.1166L74.9467 29.0218L74.9947 27.3357L71.1089 27.2303C70.8474 27.2197 70.6286 27.1302 70.4471 26.951C70.2656 26.7719 70.1802 26.5611 70.1855 26.3187C70.1909 26.0711 70.2923 25.8656 70.4844 25.697C70.6713 25.5284 70.8954 25.4441 71.157 25.4493L75.0428 25.5547L75.0908 23.7158L71.205 23.6104C70.9435 23.6052 70.7246 23.5103 70.5431 23.3312C70.3617 23.152 70.2763 22.9413 70.2816 22.6989C70.2869 22.4512 70.3884 22.2458 70.5805 22.0771C70.7673 21.9085 70.9915 21.8242 71.2531 21.8295L75.1388 21.9349L75.1869 20.2488L78.6403 20.3436C79.2061 20.3594 79.7399 20.4595 80.2256 20.6387C80.8447 20.8653 81.4052 21.2288 81.8963 21.7189C82.5581 22.3722 82.9638 23.1151 83.1186 23.9529L82.35 22.604" fill="black"/>
<path d="M83.0812 25.7286L84.0506 25.9741L84.0826 25.8476L84.0811 25.7171L83.0812 25.7286ZM82.9905 26.0342L82.0536 25.6846L82.0445 25.7089L82.0367 25.7336L82.9905 26.0342ZM81.7308 27.9205L81.0648 27.1745L81.0637 27.1756L81.7308 27.9205ZM80.0014 28.9058L79.708 27.9499L79.7072 27.9501L80.0014 28.9058ZM78.4001 29.1166L78.3727 30.1163L78.3817 30.1164L78.4001 29.1166ZM74.9467 29.0218L73.9471 28.9933L73.9186 29.9939L74.9192 30.0214L74.9467 29.0218ZM74.9947 27.3357L75.9943 27.3642L76.0229 26.3632L75.0218 26.336L74.9947 27.3357ZM71.1089 27.2303L71.0687 28.2296L71.0818 28.2299L71.1089 27.2303ZM70.1855 26.3187L71.1853 26.3408L71.1853 26.3403L70.1855 26.3187ZM70.4844 25.697L71.1441 26.4487L71.1545 26.4393L70.4844 25.697ZM71.157 25.4493L71.1841 24.4497L71.1771 24.4495L71.157 25.4493ZM75.0428 25.5547L75.0157 26.5544L76.0163 26.5815L76.0424 25.5808L75.0428 25.5547ZM75.0908 23.7158L76.0905 23.7419L76.1166 22.7433L75.1179 22.7162L75.0908 23.7158ZM71.205 23.6104L71.2321 22.6108L71.2252 22.6106L71.205 23.6104ZM70.2816 22.6989L71.2814 22.7209L71.2814 22.7204L70.2816 22.6989ZM70.5805 22.0771L71.2401 22.8289L71.2505 22.8195L70.5805 22.0771ZM71.2531 21.8295L71.2802 20.8298L71.2732 20.8297L71.2531 21.8295ZM75.1388 21.9349L75.1117 22.9345L76.11 22.9616L76.1384 21.9634L75.1388 21.9349ZM75.1869 20.2488L75.2143 19.2492L74.2157 19.2217L74.1873 20.2203L75.1869 20.2488ZM78.6403 20.3436L78.6682 19.344L78.6678 19.344L78.6403 20.3436ZM80.2256 20.6387L79.8795 21.5769L79.8819 21.5778L80.2256 20.6387ZM81.8963 21.7189L81.1899 22.4267L81.1937 22.4305L81.8963 21.7189ZM83.1186 23.9529L82.2497 24.448L84.1019 23.7712L83.1186 23.9529ZM82.0599 23.8854L82.0813 25.7401L84.0811 25.7171L84.0598 23.8624L82.0599 23.8854ZM82.1118 25.4831C82.0859 25.5854 82.0703 25.6397 82.0536 25.6846L83.9273 26.3839C83.9853 26.2285 84.0231 26.0826 84.0506 25.9741L82.1118 25.4831ZM82.0367 25.7336C81.8731 26.2529 81.5613 26.7313 81.0648 27.1745L82.3968 28.6665C83.1279 28.0138 83.6595 27.2382 83.9442 26.3348L82.0367 25.7336ZM81.0637 27.1756C80.6504 27.5457 80.2006 27.7987 79.708 27.9499L80.2948 29.8618C81.0725 29.6231 81.7756 29.2228 82.3979 28.6655L81.0637 27.1756ZM79.7072 27.9501C79.3245 28.0679 78.8977 28.1256 78.4186 28.1168L78.3817 30.1164C79.0447 30.1287 79.6855 30.0494 80.2956 29.8616L79.7072 27.9501ZM78.4276 28.117L74.9741 28.0221L74.9192 30.0214L78.3727 30.1162L78.4276 28.117ZM75.9463 29.0502L75.9943 27.3642L73.9951 27.3072L73.9471 28.9933L75.9463 29.0502ZM75.0218 26.336L71.136 26.2306L71.0818 28.2299L74.9676 28.3353L75.0218 26.336ZM71.1492 26.2311C71.1352 26.2305 71.1283 26.2292 71.127 26.2289C71.1259 26.2287 71.1289 26.2292 71.1343 26.2315C71.1398 26.2338 71.1449 26.2367 71.1489 26.2393C71.1527 26.2419 71.1529 26.2426 71.1496 26.2394L69.7446 27.6627C70.1163 28.0296 70.5772 28.2097 71.0687 28.2295L71.1492 26.2311ZM71.1496 26.2394C71.1442 26.2341 71.1581 26.2467 71.171 26.278C71.1842 26.31 71.1854 26.335 71.1853 26.3408L69.1858 26.2967C69.1742 26.8221 69.373 27.2959 69.7446 27.6627L71.1496 26.2394ZM71.1853 26.3403C71.1852 26.344 71.1846 26.354 71.1812 26.3685C71.1778 26.3831 71.1724 26.3987 71.1651 26.4138C71.1495 26.4459 71.135 26.4565 71.144 26.4486L69.8249 24.9453C69.4383 25.2846 69.1976 25.7483 69.1858 26.2972L71.1853 26.3403ZM71.1545 26.4393C71.1579 26.4362 71.158 26.4366 71.1547 26.4387C71.1512 26.4408 71.146 26.4435 71.1399 26.4458C71.1337 26.448 71.1291 26.449 71.1271 26.4493C71.1253 26.4496 71.1282 26.449 71.1368 26.4491L71.1771 24.4495C70.6648 24.4392 70.1928 24.6131 69.8144 24.9546L71.1545 26.4393ZM71.1299 26.449L75.0157 26.5544L75.0699 24.5551L71.1841 24.4497L71.1299 26.449ZM76.0424 25.5808L76.0905 23.7419L74.0911 23.6897L74.0431 25.5286L76.0424 25.5808ZM75.1179 22.7162L71.2321 22.6108L71.1779 24.6101L75.0637 24.7155L75.1179 22.7162ZM71.2252 22.6106C71.2176 22.6105 71.2161 22.6098 71.2192 22.6105C71.2226 22.6112 71.2282 22.6127 71.235 22.6156C71.2418 22.6185 71.2468 22.6215 71.2496 22.6234C71.2522 22.6251 71.2508 22.6246 71.2457 22.6195L69.8406 24.0428C70.2021 24.3997 70.6643 24.5998 71.1849 24.6102L71.2252 22.6106ZM71.2457 22.6195C71.2403 22.6142 71.2542 22.6268 71.2671 22.6582C71.2802 22.6901 71.2815 22.7151 71.2814 22.7209L69.2819 22.6769C69.2703 23.2022 69.4691 23.6761 69.8406 24.0428L71.2457 22.6195ZM71.2814 22.7204C71.2813 22.7241 71.2807 22.7341 71.2773 22.7486C71.2739 22.7633 71.2684 22.7789 71.2611 22.794C71.2456 22.8261 71.2311 22.8367 71.2401 22.8288L69.921 21.3255C69.5344 21.6647 69.2937 22.1284 69.2818 22.6773L71.2814 22.7204ZM71.2505 22.8195C71.254 22.8164 71.2541 22.8168 71.2507 22.8188C71.2472 22.821 71.2421 22.8236 71.2359 22.8259C71.2298 22.8282 71.2251 22.8292 71.2232 22.8295C71.2214 22.8298 71.2243 22.8291 71.2329 22.8293L71.2732 20.8297C70.7608 20.8194 70.2889 20.9933 69.9105 21.3348L71.2505 22.8195ZM71.2259 22.8291L75.1117 22.9345L75.166 20.9353L71.2802 20.8299L71.2259 22.8291ZM76.1384 21.9634L76.1865 20.2773L74.1873 20.2203L74.1392 21.9064L76.1384 21.9634ZM75.1594 21.2484L78.6129 21.3432L78.6678 19.344L75.2143 19.2492L75.1594 21.2484ZM78.6124 21.3432C79.0781 21.3562 79.5036 21.4382 79.8795 21.5769L80.5716 19.7005C79.9761 19.4808 79.3341 19.3626 78.6682 19.344L78.6124 21.3432ZM79.8819 21.5778C80.3563 21.7514 80.7949 22.0325 81.1899 22.4267L82.6026 21.011C82.0155 20.4251 81.3332 19.9791 80.5692 19.6996L79.8819 21.5778ZM81.1937 22.4305C81.7233 22.9533 82.0209 23.5157 82.1352 24.1346L84.1019 23.7712C83.9067 22.7146 83.3929 21.7912 82.5988 21.0072L81.1937 22.4305ZM83.9874 23.4578L83.2188 22.109L81.4811 23.0991L82.2497 24.448L83.9874 23.4578Z" fill="black" mask="url(#path-17-inside-1_184_979)"/>
</svg>
