<svg width="25" height="20" viewBox="0 0 25 20" fill="none" xmlns="http://www.w3.org/2000/svg">
<path d="M14.1578 10.2012L24.4231 4.21383C24.1482 3.01842 23.4766 1.95118 22.5179 1.18606C21.5591 0.420938 20.3696 0.00288984 19.143 0H5.42852C4.20191 0.00286996 3.01242 0.420928 2.05368 1.18606C1.09493 1.95118 0.423364 3.01842 0.148438 4.21383L10.4137 10.2012H10.4139C10.9822 10.5324 11.6281 10.7069 12.2859 10.7069C12.9437 10.7069 13.5896 10.5324 14.1579 10.2012H14.1578Z" fill="white" fill-opacity="0.6"/>
<path d="M6.84599 10.1039L0 6.11523V14.5722C0.000956636 15 0.0547206 15.4261 0.15995 15.8409L6.84599 10.1039Z" fill="white" fill-opacity="0.6"/>
<path d="M23.7125 17.5094L16.1469 11.0176L15.0154 11.6805C14.1873 12.1669 13.2445 12.4233 12.284 12.4233C11.3235 12.4233 10.3806 12.1669 9.55252 11.6805L8.42098 11.0176L0.855469 17.5094C1.85878 19.0605 3.57941 19.9982 5.42691 20.0009H19.1414C20.9889 19.9982 22.7095 19.0605 23.7129 17.5094H23.7125Z" fill="white" fill-opacity="0.6"/>
<path d="M24.4126 15.8409C24.5178 15.4261 24.5716 15 24.5725 14.5722V6.11523L17.7266 10.1039L24.4126 15.8409Z" fill="white" fill-opacity="0.6"/>
</svg>
