<svg width="23" height="23" viewBox="0 0 23 23" fill="none" xmlns="http://www.w3.org/2000/svg">
<path d="M23 18.1647C23 18.4588 22.9456 18.8425 22.8367 19.3163C22.7277 19.79 22.6133 20.163 22.4937 20.4353C22.265 20.9798 21.6007 21.557 20.5008 22.1669C19.4772 22.7223 18.4644 23 17.4624 23C17.1684 23 16.8825 22.9809 16.6049 22.9429C16.3272 22.9047 16.0142 22.8367 15.6656 22.7387C15.3171 22.6406 15.0585 22.5617 14.8897 22.5018C14.7209 22.442 14.4186 22.3303 13.9831 22.167C13.5475 22.0037 13.2807 21.9057 13.1827 21.8729C12.1155 21.4918 11.1625 21.0398 10.324 20.5171C8.93015 19.6569 7.48994 18.4834 6.00333 16.9968C4.51675 15.5101 3.3433 14.0698 2.4829 12.6761C1.96019 11.8375 1.50828 10.8847 1.12705 9.81749C1.09433 9.71946 0.9963 9.45266 0.832976 9.01709C0.669651 8.58152 0.557991 8.27925 0.49815 8.11048C0.438309 7.9417 0.359374 7.68309 0.261349 7.3346C0.163324 6.98611 0.0952979 6.67299 0.0571139 6.39526C0.0190909 6.11755 0 5.83164 0 5.53757C0 4.53564 0.277712 3.52282 0.833132 2.49924C1.44296 1.39931 2.02017 0.735103 2.5647 0.506335C2.8368 0.386649 3.20981 0.272262 3.68356 0.163324C4.15732 0.0543907 4.54109 0 4.83516 0C4.98757 0 5.10196 0.0163645 5.17817 0.0489324C5.37422 0.114228 5.66286 0.528152 6.04387 1.29039C6.16372 1.49736 6.32704 1.79126 6.53402 2.17248C6.74098 2.55367 6.93158 2.8994 7.10581 3.2097C7.28005 3.52014 7.44882 3.81131 7.61214 4.08357C7.64487 4.12705 7.74017 4.26326 7.89803 4.49188C8.0559 4.7205 8.17302 4.9138 8.24923 5.07185C8.32543 5.22972 8.36362 5.38502 8.36362 5.53743C8.36362 5.7553 8.20848 6.02758 7.89803 6.35422C7.58759 6.68086 7.25005 6.98039 6.88522 7.25265C6.52039 7.52491 6.18281 7.81352 5.8724 8.11835C5.56195 8.42318 5.40681 8.67376 5.40681 8.86983C5.40681 8.96786 5.43409 9.09043 5.48847 9.23739C5.54286 9.38435 5.58923 9.49601 5.62725 9.57222C5.66543 9.64842 5.74164 9.77918 5.85587 9.96432C5.97026 10.1495 6.03283 10.2529 6.04374 10.2748C6.87141 11.7666 7.8188 13.0463 8.886 14.1135C9.95319 15.1807 11.2329 16.1282 12.7247 16.9557C12.7465 16.9667 12.8499 17.0292 13.0352 17.1436C13.2203 17.258 13.3509 17.3342 13.4273 17.3722C13.5035 17.4104 13.6151 17.4566 13.7621 17.511C13.9091 17.5656 14.0316 17.5927 14.1297 17.5927C14.3257 17.5927 14.5761 17.4375 14.8811 17.1271C15.1861 16.8166 15.4747 16.4791 15.7468 16.1143C16.0191 15.7494 16.3186 15.4119 16.6453 15.1015C16.9719 14.791 17.2442 14.6359 17.4621 14.6359C17.6145 14.6359 17.7698 14.6741 17.9276 14.7503C18.0855 14.8265 18.2788 14.9436 18.5076 15.1015C18.7362 15.2593 18.8724 15.3546 18.9159 15.3873C19.1882 15.5507 19.4795 15.7194 19.7898 15.8937C20.1002 16.0679 20.446 16.2585 20.827 16.4655C21.2082 16.6724 21.5021 16.8358 21.7091 16.9556C22.4715 17.3368 22.8853 17.6254 22.9506 17.8213C22.9833 17.8975 22.9995 18.0119 22.9995 18.1643L23 18.1647Z" fill="white" fill-opacity="0.6"/>
</svg>
